# AST/ASF file generated using VICON BodyLanguage
# -----------------------------------------------
:version 1.10
:name VICON
:units
  mass 1.0
  length 0.45
  angle deg
:documentation
   .ast/.asf automatically generated from VICON data using
   VICON BodyBuilder and BodyLanguage model FoxedUp or BRILLIANT.MOD
:root
   order TX TY TZ RX RY RZ
   axis XYZ
   position 0 0 0  
   orientation 0 0 0 
:bonedata
  begin
     id 1 
     name lhipjoint
     direction 0.716712 -0.619771 0.3197 
     length 2.67249 
     axis 0 0 0  XYZ
  end
  begin
     id 2 
     name lfemur
     direction 0.34202 -0.939693 0  
     length 7.04375  
     axis 0 0 20  XYZ
    dof rx ry rz
    limits (-160.0 20.0)
           (-70.0 70.0)
           (-60.0 70.0)
  end
  begin
     id 3 
     name ltibia
     direction 0.34202 -0.939693 0   
     length 8.12233   
     axis 0 0 20   XYZ
    dof rx
    limits (-10.0 170.0)
  end
  begin
     id 4 
     name lfoot
     direction 0.0986665 -0.271084 0.957485   
     length 1.97802   
     axis -90 7.62852e-016 20   XYZ
    dof rx rz
    limits (-45.0 90.0)
           (-70.0 20.0)
  end
  begin
     id 5 
     name ltoes
     direction 1.53569e-011 -4.21962e-011 1   
     length 0.991074   
     axis -90 7.62852e-016 20   XYZ
    dof rx
    limits (-90.0 20.0)
  end
  begin
     id 6 
     name rhipjoint
     direction -0.684484 -0.647907 0.334213   
     length 2.55643  
     axis 0 0 0  XYZ 
  end
  begin
     id 7 
     name rfemur
     direction -0.34202 -0.939693 0   
     length 7.00452   
     axis 0 0 -20   XYZ
    dof rx ry rz
    limits (-160.0 20.0)
           (-70.0 70.0)
           (-70.0 60.0)
  end
  begin
     id 8 
     name rtibia
     direction -0.34202 -0.939693 0   
     length 7.98545   
     axis 0 0 -20   XYZ
    dof rx
    limits (-10.0 170.0)
 end
 begin
     id 9 
     name rfoot
     direction -0.0877828 -0.241181 0.966502   
     length 2.17223  
     axis -90 -7.62852e-016 -20   XYZ
    dof rx rz
    limits (-45.0 90.0)
           (-20.0 70.0)
  end
  begin
     id 10 
     name rtoes
     direction -1.53586e-011 -4.22014e-011 1   
     length 1.0886   
     axis -90 -7.62852e-016 -20   XYZ
    dof rx
    limits (-90.0 20.0)
  end
  begin
     id 11 
     name lowerback
     direction -0.0470064 0.989573 -0.136149   
     length 2.05976   
     axis 0 0 0   XYZ
    dof rx ry rz
    limits (-20.0 45.0)
           (-30.0 30.0)
           (-30.0 30.0)
  end
  begin
     id 12 
     name upperback
     direction -0.00532895 0.998093 0.0615045   
     length 2.02286   
     axis 0 0 0   XYZ
    dof rx ry rz
    limits (-20.0 45.0)
           (-30.0 30.0)
           (-30.0 30.0)
  end
  begin
     id 13 
     name thorax
     direction 0.0171558 0.991502 0.128954   
     length 2.09196   
     axis 0 0 0   XYZ
    dof rx ry rz
    limits (-20.0 45.0)
           (-30.0 30.0)
           (-30.0 30.0)
  end
  begin
     id 14 
     name lowerneck
     direction 0.0221176 0.995362 0.0936194   
     length 1.70234   
     axis 0 0 0   XYZ
    dof rx ry rz
    limits (-20.0 45.0)
           (-30.0 30.0)
           (-30.0 30.0)
  end
  begin
     id 15 
     name upperneck
     direction -0.0237973 0.998511 -0.0490877   
     length 1.66068   
     axis 0 0 0   XYZ
    dof rx ry rz
    limits (-20.0 45.0)
           (-30.0 30.0)
           (-30.0 30.0)
  end
  begin
     id 16
     name head
     direction -0.00980141 0.999531 -0.0289958  
     length 1.82618  
     axis 0 0 0   XYZ
    dof rx ry rz
    limits (-20.0 45.0)
           (-30.0 30.0)
           (-30.0 30.0)
  end
  begin
     id 17 
     name lclavicle
     direction 0.894784 0.445864 -0.0238113  
     length 3.37997  
     axis 0 0 0   XYZ
    dof ry rz
    limits (-20.0 10.0)
           (0.0 20.0)
  end
  begin
     id 18 
     name lhumerus
     direction 1 -4.48975e-011 6.49229e-028   
     length 5.79016   
     axis 180 -30 -90   XYZ
    dof rx ry rz
    limits (-60.0 90.0)
           (-90.0 90.0)
           (-90.0 90.0)
  end
  begin
     id 19
     name lradius
     direction 1 -4.48959e-011 2.80427e-027   
     length 3.48314   
     axis 180 -30 -90   XYZ
    dof rx
    limits (-10.0 170.0)
  end
  begin
     id 20
     name lwrist
     direction 1 -4.48938e-011 5.60449e-029   
     length 1.74157   
     axis 8.48505e-016 90 90   XYZ
    dof ry
    limits (-180.0 0.0)
 end
  begin
     id 21 
     name lhand
     direction 1 -4.49048e-011 1.1209e-028   
     length 0.587065   
     axis -7.15228e-017 90 90   XYZ
    dof rx rz
    limits (-90.0 90.0)
           (-45.0 45.0)
  end
  begin
     id 22 
     name lfingers
     direction 1 -4.49036e-011 2.24179e-028   
     length 0.473307   
     axis -1.43046e-016 90 90   XYZ
    dof rx
    limits (0.0 90.0)
  end
  begin
     id 23
     name lthumb
     direction 0.707107 -6.34878e-011 0.707107   
     length 0.679577   
     axis -90 45 2.85299e-015   XYZ
    dof rx rz
    limits (-45.0 45.0)
           (-45.0 45.0)
  end
  begin
     id 24 
     name rclavicle
     direction -0.952963 0.303049 0.00480459   
     length 3.50503  
     axis 0 0 0   XYZ 
    dof ry rz
    limits (-10.0 20.0)
           (-20.0 0.0)
  end
  begin
     id 25 
     name rhumerus
     direction -1 -4.48973e-011 -1.5431e-027  
     length 5.69822   
     axis 180 30 90   XYZ
    dof rx ry rz
    limits (-90.0 60.0)
           (-90.0 90.0)
           (-90.0 90.0)
  end
  begin
     id 26 
     name rradius
     direction -1 -4.4896e-011 2.11972e-027   
     length 3.58077   
     axis 180 30 90   XYZ
    dof rx
    limits (-10.0 170.0)
  end
  begin
     id 27 
     name rwrist
     direction -1 -4.48943e-011 5.60449e-029   
     length 1.79039   
     axis 8.48505e-016 -90 -90   XYZ
    dof ry
    limits (-180.0 0.0)
  end
  begin
     id 28
     name rhand
     direction -1 -4.49007e-011 1.1209e-028   
     length 0.620156   
     axis -7.15228e-017 -90 -90   XYZ
    dof rx rz
    limits (-90.0 90.0)
           (-45.0 45.0)
  end
  begin
     id 29
     name rfingers
     direction -1 -4.49025e-011 2.24179e-028   
     length 0.499985   
     axis -1.43046e-016 -90 -90   XYZ
    dof rx
    limits (0.0 90.0)
  end
  begin
     id 30
     name rthumb
     direction -0.707107 -6.3481e-011 0.707107   
     length 0.717882   
     axis -90 -45 -2.85299e-015   XYZ
    dof rx rz
    limits (-45.0 45.0)
           (-45.0 45.0)
  end
:hierarchy
  begin
    root lhipjoint rhipjoint lowerback
    lhipjoint lfemur
    lfemur ltibia
    ltibia lfoot
    lfoot ltoes
    rhipjoint rfemur
    rfemur rtibia
    rtibia rfoot
    rfoot rtoes
    lowerback upperback
    upperback thorax
    thorax lowerneck lclavicle rclavicle
    lowerneck upperneck
    upperneck head
    lclavicle lhumerus
    lhumerus lradius
    lradius lwrist
    lwrist lhand lthumb
    lhand lfingers
    rclavicle rhumerus
    rhumerus rradius
    rradius rwrist
    rwrist rhand rthumb
    rhand rfingers
  end

#!OML:ASF H:\Terrain\Patient Classification 1\PaulMetrics\March17Take4\PaulMetrics.ASF
:FULLY-SPECIFIED
:DEGREES
371
root 13.4641 18.0612 22.7979 -165.582 31.4407 -176.024
lowerback 1.94727 2.90689 -2.07376
upperback -2.50273 3.81811 -0.623524
thorax -3.7597 1.96306 0.314907
lowerneck -1.17361 12.3318 9.41923
upperneck 10.3288 18.6247 -13.6124
head 5.45953 9.15925 -4.4538
rclavicle -4.92986e-014 -1.43125e-014
rhumerus -38.6134 10.3054 -77.2888
rradius 44.8268
rwrist -13.4609
rhand -22.4926 -37.1533
rfingers 7.12502
rthumb 3.93307 -67.0967
lclavicle -4.92986e-014 -1.43125e-014
lhumerus -46.9562 -8.4373 82.9742
lradius 35.3687
lwrist 15.5515
lhand -13.4608 -22.041
lfingers 7.12502
lthumb 12.649 7.556
rfemur 12.3693 1.6287 25.9131
rtibia 7.63333e-014
rfoot -14.7541 -27.491
rtoes -13.168
lfemur -41.1427 -3.99232 -17.5846
ltibia 19.2915
lfoot -18.1413 23.2571
ltoes 9.09709
372
root 13.5155 18.0698 22.6638 -165.865 31.6402 -175.965
lowerback 1.67672 3.12249 -1.76156
upperback -2.30697 4.11455 -0.973245
thorax -3.36284 2.09487 -0.207654
lowerneck -1.07177 12.2945 9.74703
upperneck 10.1422 18.5125 -13.5786
head 5.39832 9.11844 -4.51338
rclavicle 8.44835e-014 9.54166e-015
rhumerus -38.455 10.0396 -77.9666
rradius 45.0136
rwrist -13.2938
rhand -21.8588 -36.4186
rfingers 7.12502
rthumb 4.5451 -66.3498
lclavicle 8.44835e-014 9.54166e-015
lhumerus -46.8421 -8.614 82.5299
lradius 34.6088
lwrist 15.8645
lhand -14.2821 -21.862
lfingers 7.12502
lthumb 11.8571 7.78225
rfemur 13.1666 1.77515 25.7186
rtibia -8.5875e-014
rfoot -14.4379 -26.6297
rtoes -9.98514
lfemur -40.5637 -4.09524 -17.4884
ltibia 19.3438
lfoot -18.5508 24.4292
ltoes 9.58485
373
root 13.5677 18.0522 22.6006 -165.48 30.8726 -175.754
lowerback 1.56794 2.92538 -1.73162
upperback -2.35647 3.8567 -0.967792
thorax -3.34776 1.96696 -0.201697
lowerneck -0.98724 12.2813 9.65012
upperneck 9.91458 18.4604 -13.5694
head 5.29804 9.09643 -4.51427
rclavicle 3.96575e-014 -4.77083e-015
rhumerus -38.1447 10.3098 -78.5347
rradius 45.25
rwrist -12.9494
rhand -21.4306 -36.005
rfingers 7.12502
rthumb 4.95859 -65.9269
lclavicle 3.96575e-014 -4.77083e-015
lhumerus -46.5694 -8.26489 82.2288
lradius 33.6575
lwrist 16.3166
lhand -13.6386 -21.5054
lfingers 7.12502
lthumb 12.4775 8.10212
rfemur 13.2409 1.05212 26.0761
rtibia -6.67916e-014
rfoot -14.4904 -26.0158
rtoes -7.69148
lfemur -41.2823 -2.00392 -18.5708
ltibia 19.8617
lfoot -16.1291 23.2251
ltoes 6.72728
374
root 13.6239 18.0205 22.5218 -165.566 30.5097 -175.479
lowerback 1.93149 2.7927 -1.91263
upperback -2.30263 3.66596 -0.75628
thorax -3.52061 1.87702 0.106156
lowerneck -1.06727 12.3717 9.27066
upperneck 9.93901 18.6053 -13.5129
head 5.29601 9.15628 -4.4225
rclavicle -2.75317e-014 -2.38542e-014
rhumerus -37.9626 11.3462 -79.1207
rradius 45.6009
rwrist -12.6574
rhand -21.4977 -36.267
rfingers 7.12502
rthumb 4.89382 -66.1905
lclavicle -2.75317e-014 -2.38542e-014
lhumerus -46.545 -7.38329 81.9105
lradius 32.9724
lwrist 16.3086
lhand -13.9758 -21.9608
lfingers 7.12502
lthumb 12.1524 7.66622
rfemur 13.871 0.683099 26.3874
rtibia 3.18055e-015
rfoot -14.7623 -25.7089
rtoes -5.64967
lfemur -41.4425 -0.578906 -19.1291
ltibia 20.6473
lfoot -14.8171 22.6031
ltoes 4.22865
375
root 13.6834 18.015 22.3952 -165.219 30.8633 -174.965
lowerback 2.12607 3.0143 -1.98844
upperback -2.72273 3.96259 -0.610161
thorax -4.08758 2.0373 0.254106
lowerneck -1.12439 12.3405 9.28793
upperneck 10.4493 18.6676 -13.4187
head 5.46181 9.18912 -4.37367
rclavicle -4.6615e-014 7.95139e-016
rhumerus -38.7273 12.245 -79.9119
rradius 46.1799
rwrist -12.937
rhand -22.4558 -37.274
rfingers 7.12502
rthumb 3.96867 -67.2168
lclavicle -4.6615e-014 7.95139e-016
lhumerus -47.1334 -6.76448 81.5707
lradius 32.2287
lwrist 15.9738
lhand -15.3227 -22.9272
lfingers 7.12502
lthumb 10.8535 6.77235
rfemur 14.1564 1.10246 26.6298
rtibia -3.81667e-014
rfoot -14.1292 -26.0539
rtoes -7.71768
lfemur -41.5047 -0.280815 -18.6678
ltibia 21.4567
lfoot -15.526 23.1812
ltoes 3.6503
376
root 13.7256 17.9974 22.2695 -165.154 30.3534 -174.823
lowerback 1.51959 3.02531 -1.12394
upperback -2.41401 4.00649 -1.15227
thorax -3.3261 2.02523 -0.733081
lowerneck -1.36893 12.3031 9.78797
upperneck 10.1356 18.4564 -13.3569
head 5.42183 9.08161 -4.4378
rclavicle 1.0953e-013 3.18055e-015
rhumerus -38.2598 11.4948 -80.678
rradius 46.0487
rwrist -11.2957
rhand -20.4653 -34.6184
rfingers 7.12502
rthumb 5.89064 -64.5165
lclavicle 1.0953e-013 3.18055e-015
lhumerus -46.4055 -6.76794 80.5731
lradius 31.2378
lwrist 15.3252
lhand -12.1744 -20.3556
lfingers 7.12502
lthumb 13.8889 9.16063
rfemur 14.5192 0.606137 26.7622
rtibia -2.22639e-014
rfoot -12.3482 -26.6875
rtoes -14.1447
lfemur -41.7206 -0.113194 -18.839
ltibia 22.5238
lfoot -15.8196 22.7842
ltoes 3.49701
377
root 13.7739 17.9841 22.1447 -165.145 30.1498 -174.756
lowerback 2.17208 3.03727 -1.8974
upperback -2.94684 3.99857 -0.671911
thorax -4.33654 2.0567 0.126482
lowerneck -1.16787 12.2393 9.41505
upperneck 10.6344 18.5745 -13.431
head 5.52759 9.14846 -4.3978
rclavicle -1.09332e-015 -8.74653e-015
rhumerus -39.3169 12.9618 -81.0782
rradius 46.7006
rwrist -12.1322
rhand -20.5014 -34.469
rfingers 7.12502
rthumb 5.85575 -64.3681
lclavicle -1.09332e-015 -8.74653e-015
lhumerus -47.4235 -5.78092 80.9096
lradius 30.5387
lwrist 14.3165
lhand -12.6489 -20.3578
lfingers 7.12502
lthumb 13.4316 9.18914
rfemur 14.9369 0.383728 26.771
rtibia 9.54166e-015
rfoot -10.4343 -26.6132
rtoes -16.989
lfemur -41.8685 0.708462 -19.3378
ltibia 23.6525
lfoot -15.7689 21.8503
ltoes 4.56803
378
root 13.8246 17.9743 22.007 -165.132 30.1511 -174.779
lowerback 1.56328 3.01013 -2.10512
upperback -2.78695 3.97194 -0.647187
thorax -3.8415 2.04761 0.311042
lowerneck -1.00999 12.2666 9.40824
upperneck 10.3544 18.6439 -13.7672
head 5.45527 9.18482 -4.50747
rclavicle -8.24956e-015 -1.43125e-014
rhumerus -39.173 13.7579 -81.6562
rradius 46.9586
rwrist -11.7866
rhand -19.8021 -34.1258
rfingers 7.12502
rthumb 6.53084 -64.0051
lclavicle -8.24956e-015 -1.43125e-014
lhumerus -47.4478 -5.22471 80.7117
lradius 29.937
lwrist 13.964
lhand -13.5003 -20.7106
lfingers 7.12502
lthumb 12.6109 8.88873
rfemur 15.3454 0.356907 26.5803
rtibia 1.90833e-014
rfoot -9.5055 -26.5442
rtoes -18.6212
lfemur -41.8629 1.30523 -19.7763
ltibia 24.6293
lfoot -15.6935 21.1872
ltoes 6.79948
379
root 13.8762 17.9609 21.9049 -165.356 29.5366 -175.111
lowerback 2.12357 2.92892 -2.3952
upperback -3.0354 3.83198 -0.90141
thorax -4.41606 1.99005 0.175953
lowerneck -1.22951 12.22 9.55585
upperneck 10.7058 18.562 -13.4475
head 5.57297 9.14375 -4.41761
rclavicle 1.68967e-015 -9.54166e-015
rhumerus -39.7402 13.9817 -82.6031
rradius 47.5387
rwrist -11.6242
rhand -19.4479 -34.6359
rfingers 7.12502
rthumb 6.87282 -64.5044
lclavicle 1.68967e-015 -9.54166e-015
lhumerus -47.5842 -5.41646 80.3508
lradius 29.2165
lwrist 13.6764
lhand -12.2782 -19.0619
lfingers 7.12502
lthumb 13.7889 10.4612
rfemur 15.8062 -0.347017 26.3439
rtibia -3.81667e-014
rfoot -9.03829 -26.9837
rtoes -21.1584
lfemur -41.9932 2.05171 -20.7228
ltibia 25.587
lfoot -14.9492 20.2815
ltoes 5.63107
380
root 13.9278 17.9708 21.7477 -165.577 29.5717 -175.213
lowerback 1.15105 3.0554 -2.17188
upperback -2.48023 4.03035 -1.2611
thorax -3.25269 2.06613 -0.246318
lowerneck -1.53447 12.3094 9.62177
upperneck 10.41 18.5602 -13.3953
head 5.53469 9.12435 -4.3961
rclavicle 5.82439e-014 -7.15625e-015
rhumerus -39.2795 14.1812 -83.4395
rradius 47.9738
rwrist -11.703
rhand -18.962 -34.6935
rfingers 7.12502
rthumb 7.3418 -64.5461
lclavicle 5.82439e-014 -7.15625e-015
lhumerus -46.6773 -5.37442 79.818
lradius 28.3488
lwrist 13.4515
lhand -10.8804 -18.0929
lfingers 7.12502
lthumb 15.1357 11.3336
rfemur 16.4683 -0.365361 26.0162
rtibia 3.81667e-014
rfoot -8.1245 -27.1226
rtoes -22.2626
lfemur -41.7624 2.53789 -21.2578
ltibia 26.525
lfoot -15.1755 20.5712
ltoes 3.06336
